<?xml version="1.0" encoding="UTF-8"?>
<svg width="4800px" height="1034px" viewBox="0 0 4800 1034" version="1.1" xmlns="http://www.w3.org/2000/svg" xmlns:xlink="http://www.w3.org/1999/xlink">
    <!-- Generator: Sketch 47 (45396) - http://www.bohemiancoding.com/sketch -->
    <title>Group 3</title>
    <desc>Created with Sketch.</desc>
    <defs></defs>
    <g id="Page-1" stroke="none" stroke-width="1" fill="none" fill-rule="evenodd">
        <g id="Group-3" fill="#D8D8D8">
            <rect id="Rectangle" x="500" y="0" width="100" height="734"></rect>
            <rect id="Rectangle" x="1200" y="0" width="100" height="1034"></rect>
            <rect id="Rectangle" x="1700" y="734" width="100" height="300"></rect>
            <rect id="Rectangle" x="2300" y="434" width="100" height="600"></rect>
            <rect id="Rectangle" x="2400" y="434" width="100" height="600"></rect>
            <rect id="Rectangle" x="2900" y="734" width="100" height="300"></rect>
            <rect id="Rectangle" x="1700" y="734" width="100" height="300"></rect>
            <path d="M0,734 C0,899.685425 134.314575,1034 300,1034 C465.685425,1034 600,899.685425 600,734 L500,734 C500,844.45695 410.45695,934 300,934 C189.54305,934 100,844.45695 100,734 L-1.0658141e-14,734 Z" id="Combined-Shape"></path>
            <path d="M600,734 C600,899.685425 734.314575,1034 900,1034 C1065.68542,1034 1200,899.685425 1200,734 L1100,734 C1100,844.45695 1010.45695,934 900,934 C789.54305,934 700,844.45695 700,734 L600,734 Z" id="Combined-Shape"></path>
            <path d="M600,434 C600,599.685425 734.314575,734 900,734 C1065.68542,734 1200,599.685425 1200,434 L1100,434 C1100,544.45695 1010.45695,634 900,634 C789.54305,634 700,544.45695 700,434 L600,434 Z" id="Combined-Shape" transform="translate(900.000000, 584.000000) scale(1, -1) translate(-900.000000, -584.000000) "></path>
            <path d="M1800,734 C1800,899.685425 1934.31458,1034 2100,1034 C2265.68542,1034 2400,899.685425 2400,734 L2300,734 C2300,844.45695 2210.45695,934 2100,934 C1989.54305,934 1900,844.45695 1900,734 L1800,734 Z" id="Combined-Shape"></path>
            <path d="M1800,434 C1800,599.685425 1934.31458,734 2100,734 C2265.68542,734 2400,599.685425 2400,434 L2300,434 C2300,544.45695 2210.45695,634 2100,634 C1989.54305,634 1900,544.45695 1900,434 L1800,434 Z" id="Combined-Shape" transform="translate(2100.000000, 584.000000) scale(1, -1) translate(-2100.000000, -584.000000) "></path>
            <path d="M4159.57546,884.5 C4107.63326,973.894399 4010.83584,1034 3900,1034 C3734.31458,1034 3600,899.685425 3600,734 L3700,734 C3700,844.45695 3789.54305,934 3900,934 C3950.45008,934 3996.53729,915.320314 4031.72257,884.5 L4159.57546,884.5 Z M4195.76776,784.5 L4093.56974,784.5 C4097.76646,768.368582 4100,751.445127 4100,734 L4200,734 C4200,751.210272 4198.55079,768.082063 4195.76776,784.5 Z" id="Combined-Shape"></path>
            <path d="M4159.57546,884.5 C4107.63326,973.894399 4010.83584,1034 3900,1034 C3734.31458,1034 3600,899.685425 3600,734 L3700,734 C3700,844.45695 3789.54305,934 3900,934 C3950.45008,934 3996.53729,915.320314 4031.72257,884.5 L4159.57546,884.5 Z M4195.76776,784.5 L4093.56974,784.5 C4097.76646,768.368582 4100,751.445127 4100,734 L4200,734 C4200,751.210272 4198.55079,768.082063 4195.76776,784.5 Z" id="Combined-Shape"></path>
            <path d="M3600,434 C3600,599.685425 3734.31458,734 3900,734 C4065.68542,734 4200,599.685425 4200,434 L4100,434 C4100,544.45695 4010.45695,634 3900,634 C3789.54305,634 3700,544.45695 3700,434 L3600,434 Z" id="Combined-Shape" transform="translate(3900.000000, 584.000000) scale(1, -1) translate(-3900.000000, -584.000000) "></path>
            <path d="M2400,434 C2400,599.685425 2534.31458,734 2700,734 C2865.68542,734 3000,599.685425 3000,434 L2900,434 C2900,544.45695 2810.45695,634 2700,634 C2589.54305,634 2500,544.45695 2500,434 L2400,434 Z" id="Combined-Shape" transform="translate(2700.000000, 584.000000) scale(1, -1) translate(-2700.000000, -584.000000) "></path>
            <rect id="Rectangle" x="3000" y="434" width="100" height="600"></rect>
            <rect id="Rectangle" x="3500" y="734" width="100" height="300"></rect>
            <rect id="Rectangle" transform="translate(3894.000000, 734.500000) rotate(90.000000) translate(-3894.000000, -734.500000) " x="3844" y="476" width="100" height="517"></rect>
            <g id="Group" transform="translate(4500.000000, 734.500000) scale(1, -1) translate(-4500.000000, -734.500000) translate(4200.000000, 435.000000)">
                <path d="M559.575463,449.5 C507.633259,538.894399 410.835837,599 300,599 C134.314575,599 0,464.685425 0,299 L100,299 C100,409.45695 189.54305,499 300,499 C350.450083,499 396.537292,480.320314 431.72257,449.5 L559.575463,449.5 Z M595.767758,349.5 L493.569741,349.5 C497.766458,333.368582 500,316.445127 500,299 L600,299 C600,316.210272 598.550794,333.082063 595.767758,349.5 Z" id="Combined-Shape"></path>
                <path d="M559.575463,150.5 C507.633259,239.894399 410.835837,300 300,300 C134.314575,300 0,165.685425 0,0 L100,0 C100,110.45695 189.54305,200 300,200 C350.450083,200 396.537292,181.320314 431.72257,150.5 L559.575463,150.5 Z M595.767758,50.5 L493.569741,50.5 C497.766458,34.3685822 500,17.4451269 500,2.84217094e-14 L600,0 C600,17.2102716 598.550794,34.0820631 595.767758,50.5 Z" id="Combined-Shape" transform="translate(300.000000, 150.000000) scale(-1, -1) translate(-300.000000, -150.000000) "></path>
                <rect id="Rectangle" transform="translate(294.500000, 300.000000) rotate(90.000000) translate(-294.500000, -300.000000) " x="244.5" y="41.5" width="100" height="517"></rect>
            </g>
            <path d="M3000,434 C3000,599.685425 3134.31458,734 3300,734 C3465.68542,734 3600,599.685425 3600,434 L3500,434 C3500,544.45695 3410.45695,634 3300,634 C3189.54305,634 3100,544.45695 3100,434 L3000,434 Z" id="Combined-Shape" transform="translate(3300.000000, 584.000000) scale(1, -1) translate(-3300.000000, -584.000000) "></path>
            <path d="M1200,434 C1200,599.685425 1334.31458,734 1500,734 C1665.68542,734 1800,599.685425 1800,434 L1700,434 C1700,544.45695 1610.45695,634 1500,634 C1389.54305,634 1300,544.45695 1300,434 L1200,434 Z" id="Combined-Shape" transform="translate(1500.000000, 584.000000) scale(1, -1) translate(-1500.000000, -584.000000) "></path>
        </g>
    </g>
</svg>