<?xml version="1.0" encoding="UTF-8"?>
<svg width="4799px" height="1044px" viewBox="0 0 4799 1044" version="1.1" xmlns="http://www.w3.org/2000/svg" xmlns:xlink="http://www.w3.org/1999/xlink">
    <!-- Generator: Sketch 47 (45396) - http://www.bohemiancoding.com/sketch -->
    <title>Group 4</title>
    <desc>Created with Sketch.</desc>
    <defs></defs>
    <g id="Page-1" stroke="none" stroke-width="1" fill="none" fill-rule="evenodd">
        <g id="Group-4" fill="#D8D8D8">
            <rect id="Rectangle" x="3499" y="733" width="100" height="300"></rect>
            <rect id="Rectangle" x="500" y="300" width="100" height="434"></rect>
            <path d="M0,734 C0,899.685425 134.314575,1034 300,1034 C465.685425,1034 600,899.685425 600,734 L500,734 C500,844.45695 410.45695,934 300,934 C189.54305,934 100,844.45695 100,734 L-1.0658141e-14,734 Z" id="Combined-Shape"></path>
            <path d="M500,0 C500,165.685425 634.314575,300 800,300 C965.685425,300 1100,165.685425 1100,0 L1000,0 C1000,110.45695 910.45695,200 800,200 C689.54305,200 600,110.45695 600,2.84217094e-14 L500,0 Z" id="Combined-Shape" transform="translate(800.000000, 150.000000) scale(1, -1) translate(-800.000000, -150.000000) "></path>
            <g id="Group-2" transform="translate(851.618510, 732.939018) rotate(-30.000000) translate(-851.618510, -732.939018) translate(516.618510, 377.939018)">
                <path d="M-40,260 C-40,425.685425 94.3145751,560 260,560 C425.685425,560 560,425.685425 560,260 L460,260 C460,370.45695 370.45695,460 260,460 C149.54305,460 60,370.45695 60,260 L-40,260 Z" id="Combined-Shape" transform="translate(260.000000, 410.000000) scale(1, -1) rotate(90.000000) translate(-260.000000, -410.000000) "></path>
                <path d="M34.8076211,129.903811 C34.8076211,295.589236 169.122196,429.903811 334.807621,429.903811 C500.493046,429.903811 634.807621,295.589236 634.807621,129.903811 L534.807621,129.903811 C534.807621,240.360761 445.264571,329.903811 334.807621,329.903811 C224.350671,329.903811 134.807621,240.360761 134.807621,129.903811 L34.8076211,129.903811 Z" id="Combined-Shape" transform="translate(334.807621, 279.903811) scale(1, -1) rotate(30.000000) translate(-334.807621, -279.903811) "></path>
            </g>
            <rect id="Rectangle" x="2899" y="433" width="100" height="600"></rect>
            <path d="M2399,733 C2399,898.685425 2533.31458,1033 2699,1033 C2864.68542,1033 2999,898.685425 2999,733 L2899,733 C2899,843.45695 2809.45695,933 2699,933 C2588.54305,933 2499,843.45695 2499,733 L2399,733 Z" id="Combined-Shape"></path>
            <path d="M2399,433 C2399,598.685425 2533.31458,733 2699,733 C2864.68542,733 2999,598.685425 2999,433 L2899,433 C2899,543.45695 2809.45695,633 2699,633 C2588.54305,633 2499,543.45695 2499,433 L2399,433 Z" id="Combined-Shape" transform="translate(2699.000000, 583.000000) scale(1, -1) translate(-2699.000000, -583.000000) "></path>
            <rect id="Rectangle" x="2999" y="433" width="100" height="600"></rect>
            <path d="M2999,433 C2999,598.685425 3133.31458,733 3299,733 C3464.68542,733 3599,598.685425 3599,433 L3499,433 C3499,543.45695 3409.45695,633 3299,633 C3188.54305,633 3099,543.45695 3099,433 L2999,433 Z" id="Combined-Shape" transform="translate(3299.000000, 583.000000) scale(1, -1) translate(-3299.000000, -583.000000) "></path>
            <path d="M4758.57546,884.5 C4706.63326,973.894399 4609.83584,1034 4499,1034 C4333.31458,1034 4199,899.685425 4199,734 L4299,734 C4299,844.45695 4388.54305,934 4499,934 C4549.45008,934 4595.53729,915.320314 4630.72257,884.5 L4758.57546,884.5 Z M4794.76776,784.5 L4692.56974,784.5 C4696.76646,768.368582 4699,751.445127 4699,734 L4799,734 C4799,751.210272 4797.55079,768.082063 4794.76776,784.5 Z" id="Combined-Shape"></path>
            <path d="M4199,434 C4199,599.685425 4333.31458,734 4499,734 C4664.68542,734 4799,599.685425 4799,434 L4699,434 C4699,544.45695 4609.45695,634 4499,634 C4388.54305,634 4299,544.45695 4299,434 L4199,434 Z" id="Combined-Shape" transform="translate(4499.000000, 584.000000) scale(1, -1) translate(-4499.000000, -584.000000) "></path>
            <rect id="Rectangle" transform="translate(4492.500000, 735.000000) rotate(90.000000) translate(-4492.500000, -735.000000) " x="4442.5" y="476.5" width="100" height="517"></rect>
            <rect id="Rectangle" x="3599" y="432" width="100" height="302"></rect>
            <rect id="Rectangle" transform="translate(3850.000000, 534.000000) rotate(90.000000) translate(-3850.000000, -534.000000) " x="3800" y="383" width="100" height="302"></rect>
            <path d="M3599,734 C3599,899.685425 3733.31458,1034 3899,1034 C4064.68542,1034 4199,899.685425 4199,734 L4099,734 C4099,844.45695 4009.45695,934 3899,934 C3788.54305,934 3699,844.45695 3699,734 L3599,734 Z" id="Combined-Shape"></path>
            <rect id="Rectangle" x="1799" y="0" width="100" height="1034"></rect>
            <path d="M1799,434 C1799,599.685425 1933.31458,734 2099,734 C2264.68542,734 2399,599.685425 2399,434 L2299,434 C2299,544.45695 2209.45695,634 2099,634 C1988.54305,634 1899,544.45695 1899,434 L1799,434 Z" id="Combined-Shape" transform="translate(2099.000000, 584.000000) scale(1, -1) translate(-2099.000000, -584.000000) "></path>
            <path d="M1799,734 C1799,899.685425 1933.31458,1034 2099,1034 C2264.68542,1034 2399,899.685425 2399,734 L2299,734 C2299,844.45695 2209.45695,934 2099,934 C1988.54305,934 1899,844.45695 1899,734 L1799,734 Z" id="Combined-Shape"></path>
            <rect id="Rectangle" x="1099" y="434" width="100" height="600"></rect>
            <rect id="Rectangle" x="1699" y="434" width="100" height="600"></rect>
            <path d="M1099,434 C1099,599.685425 1233.31458,734 1399,734 C1564.68542,734 1699,599.685425 1699,434 L1599,434 C1599,544.45695 1509.45695,634 1399,634 C1288.54305,634 1199,544.45695 1199,434 L1099,434 Z" id="Combined-Shape" transform="translate(1399.000000, 584.000000) scale(1, -1) translate(-1399.000000, -584.000000) "></path>
            <circle id="Oval-2" cx="1751" cy="373" r="60"></circle>
        </g>
    </g>
</svg>